<?xml version="1.0" encoding="utf-8" standalone="no"?>
<!DOCTYPE svg PUBLIC "-//W3C//DTD SVG 1.1//EN"
  "http://www.w3.org/Graphics/SVG/1.1/DTD/svg11.dtd">
<!-- Created with matplotlib (https://matplotlib.org/) -->
<svg height="345.6pt" version="1.1" viewBox="0 0 460.8 345.6" width="460.8pt" xmlns="http://www.w3.org/2000/svg" xmlns:xlink="http://www.w3.org/1999/xlink">
 <defs>
  <style type="text/css">
*{stroke-linecap:butt;stroke-linejoin:round;}
  </style>
 </defs>
 <g id="figure_1">
  <g id="patch_1">
   <path d="M 0 345.6 
L 460.8 345.6 
L 460.8 0 
L 0 0 
z
" style="fill:#ffffff;"/>
  </g>
  <g id="axes_1">
   <g id="patch_2">
    <path d="M 57.6 307.584 
L 414.72 307.584 
L 414.72 41.472 
L 57.6 41.472 
z
" style="fill:#ffffff;"/>
   </g>
   <g id="PathCollection_1">
    <defs>
     <path d="M 0 0.5 
C 0.132602 0.5 0.25979 0.447317 0.353553 0.353553 
C 0.447317 0.25979 0.5 0.132602 0.5 0 
C 0.5 -0.132602 0.447317 -0.25979 0.353553 -0.353553 
C 0.25979 -0.447317 0.132602 -0.5 0 -0.5 
C -0.132602 -0.5 -0.25979 -0.447317 -0.353553 -0.353553 
C -0.447317 -0.25979 -0.5 -0.132602 -0.5 0 
C -0.5 0.132602 -0.447317 0.25979 -0.353553 0.353553 
C -0.25979 0.447317 -0.132602 0.5 0 0.5 
z
" id="mc540fb6dfb" style="stroke:#8000ff;stroke-opacity:0.75;"/>
    </defs>
    <g clip-path="url(#pe5ac00ab7a)">
     <use style="fill:#8000ff;fill-opacity:0.75;stroke:#8000ff;stroke-opacity:0.75;" x="156.627945" xlink:href="#mc540fb6dfb" y="108.320272"/>
     <use style="fill:#8000ff;fill-opacity:0.75;stroke:#8000ff;stroke-opacity:0.75;" x="152.706336" xlink:href="#mc540fb6dfb" y="171.757794"/>
     <use style="fill:#8000ff;fill-opacity:0.75;stroke:#8000ff;stroke-opacity:0.75;" x="187.51366" xlink:href="#mc540fb6dfb" y="178.632023"/>
     <use style="fill:#8000ff;fill-opacity:0.75;stroke:#8000ff;stroke-opacity:0.75;" x="296.000895" xlink:href="#mc540fb6dfb" y="193.455811"/>
     <use style="fill:#8000ff;fill-opacity:0.75;stroke:#8000ff;stroke-opacity:0.75;" x="100.486266" xlink:href="#mc540fb6dfb" y="153.710023"/>
     <use style="fill:#8000ff;fill-opacity:0.75;stroke:#8000ff;stroke-opacity:0.75;" x="282.72152" xlink:href="#mc540fb6dfb" y="190.839843"/>
     <use style="fill:#8000ff;fill-opacity:0.75;stroke:#8000ff;stroke-opacity:0.75;" x="220.480704" xlink:href="#mc540fb6dfb" y="213.619902"/>
     <use style="fill:#8000ff;fill-opacity:0.75;stroke:#8000ff;stroke-opacity:0.75;" x="222.819656" xlink:href="#mc540fb6dfb" y="128.261528"/>
     <use style="fill:#8000ff;fill-opacity:0.75;stroke:#8000ff;stroke-opacity:0.75;" x="151.538525" xlink:href="#mc540fb6dfb" y="177.150167"/>
     <use style="fill:#8000ff;fill-opacity:0.75;stroke:#8000ff;stroke-opacity:0.75;" x="151.559657" xlink:href="#mc540fb6dfb" y="174.422884"/>
     <use style="fill:#8000ff;fill-opacity:0.75;stroke:#8000ff;stroke-opacity:0.75;" x="309.515793" xlink:href="#mc540fb6dfb" y="238.554328"/>
     <use style="fill:#8000ff;fill-opacity:0.75;stroke:#8000ff;stroke-opacity:0.75;" x="217.06864" xlink:href="#mc540fb6dfb" y="213.965682"/>
     <use style="fill:#8000ff;fill-opacity:0.75;stroke:#8000ff;stroke-opacity:0.75;" x="230.804664" xlink:href="#mc540fb6dfb" y="244.831408"/>
     <use style="fill:#8000ff;fill-opacity:0.75;stroke:#8000ff;stroke-opacity:0.75;" x="177.480519" xlink:href="#mc540fb6dfb" y="203.822934"/>
     <use style="fill:#8000ff;fill-opacity:0.75;stroke:#8000ff;stroke-opacity:0.75;" x="327.136529" xlink:href="#mc540fb6dfb" y="270.135136"/>
     <use style="fill:#8000ff;fill-opacity:0.75;stroke:#8000ff;stroke-opacity:0.75;" x="227.837992" xlink:href="#mc540fb6dfb" y="161.445851"/>
     <use style="fill:#8000ff;fill-opacity:0.75;stroke:#8000ff;stroke-opacity:0.75;" x="217.682674" xlink:href="#mc540fb6dfb" y="129.178555"/>
     <use style="fill:#8000ff;fill-opacity:0.75;stroke:#8000ff;stroke-opacity:0.75;" x="172.605409" xlink:href="#mc540fb6dfb" y="135.716322"/>
     <use style="fill:#8000ff;fill-opacity:0.75;stroke:#8000ff;stroke-opacity:0.75;" x="398.487273" xlink:href="#mc540fb6dfb" y="295.488"/>
     <use style="fill:#8000ff;fill-opacity:0.75;stroke:#8000ff;stroke-opacity:0.75;" x="114.744852" xlink:href="#mc540fb6dfb" y="145.564134"/>
     <use style="fill:#8000ff;fill-opacity:0.75;stroke:#8000ff;stroke-opacity:0.75;" x="105.92532" xlink:href="#mc540fb6dfb" y="138.992193"/>
     <use style="fill:#8000ff;fill-opacity:0.75;stroke:#8000ff;stroke-opacity:0.75;" x="104.466629" xlink:href="#mc540fb6dfb" y="169.683947"/>
     <use style="fill:#8000ff;fill-opacity:0.75;stroke:#8000ff;stroke-opacity:0.75;" x="149.375087" xlink:href="#mc540fb6dfb" y="167.197578"/>
     <use style="fill:#8000ff;fill-opacity:0.75;stroke:#8000ff;stroke-opacity:0.75;" x="144.951347" xlink:href="#mc540fb6dfb" y="178.930231"/>
     <use style="fill:#8000ff;fill-opacity:0.75;stroke:#8000ff;stroke-opacity:0.75;" x="114.540929" xlink:href="#mc540fb6dfb" y="174.216354"/>
     <use style="fill:#8000ff;fill-opacity:0.75;stroke:#8000ff;stroke-opacity:0.75;" x="112.656467" xlink:href="#mc540fb6dfb" y="133.743065"/>
     <use style="fill:#8000ff;fill-opacity:0.75;stroke:#8000ff;stroke-opacity:0.75;" x="190.252294" xlink:href="#mc540fb6dfb" y="204.058965"/>
     <use style="fill:#8000ff;fill-opacity:0.75;stroke:#8000ff;stroke-opacity:0.75;" x="218.730896" xlink:href="#mc540fb6dfb" y="218.526934"/>
     <use style="fill:#8000ff;fill-opacity:0.75;stroke:#8000ff;stroke-opacity:0.75;" x="125.881033" xlink:href="#mc540fb6dfb" y="154.691224"/>
     <use style="fill:#8000ff;fill-opacity:0.75;stroke:#8000ff;stroke-opacity:0.75;" x="149.296311" xlink:href="#mc540fb6dfb" y="178.270489"/>
     <use style="fill:#8000ff;fill-opacity:0.75;stroke:#8000ff;stroke-opacity:0.75;" x="218.925393" xlink:href="#mc540fb6dfb" y="192.536481"/>
     <use style="fill:#8000ff;fill-opacity:0.75;stroke:#8000ff;stroke-opacity:0.75;" x="311.90274" xlink:href="#mc540fb6dfb" y="235.19013"/>
     <use style="fill:#8000ff;fill-opacity:0.75;stroke:#8000ff;stroke-opacity:0.75;" x="139.901333" xlink:href="#mc540fb6dfb" y="159.732028"/>
     <use style="fill:#8000ff;fill-opacity:0.75;stroke:#8000ff;stroke-opacity:0.75;" x="203.275955" xlink:href="#mc540fb6dfb" y="88.68508"/>
     <use style="fill:#8000ff;fill-opacity:0.75;stroke:#8000ff;stroke-opacity:0.75;" x="163.569855" xlink:href="#mc540fb6dfb" y="147.818995"/>
     <use style="fill:#8000ff;fill-opacity:0.75;stroke:#8000ff;stroke-opacity:0.75;" x="126.666167" xlink:href="#mc540fb6dfb" y="166.500061"/>
     <use style="fill:#8000ff;fill-opacity:0.75;stroke:#8000ff;stroke-opacity:0.75;" x="120.073986" xlink:href="#mc540fb6dfb" y="152.267791"/>
     <use style="fill:#8000ff;fill-opacity:0.75;stroke:#8000ff;stroke-opacity:0.75;" x="165.847381" xlink:href="#mc540fb6dfb" y="178.47606"/>
     <use style="fill:#8000ff;fill-opacity:0.75;stroke:#8000ff;stroke-opacity:0.75;" x="146.058412" xlink:href="#mc540fb6dfb" y="173.482444"/>
     <use style="fill:#8000ff;fill-opacity:0.75;stroke:#8000ff;stroke-opacity:0.75;" x="103.470127" xlink:href="#mc540fb6dfb" y="139.72392"/>
     <use style="fill:#8000ff;fill-opacity:0.75;stroke:#8000ff;stroke-opacity:0.75;" x="107.777081" xlink:href="#mc540fb6dfb" y="148.840395"/>
     <use style="fill:#8000ff;fill-opacity:0.75;stroke:#8000ff;stroke-opacity:0.75;" x="149.207238" xlink:href="#mc540fb6dfb" y="190.655679"/>
     <use style="fill:#8000ff;fill-opacity:0.75;stroke:#8000ff;stroke-opacity:0.75;" x="163.405025" xlink:href="#mc540fb6dfb" y="170.972805"/>
     <use style="fill:#8000ff;fill-opacity:0.75;stroke:#8000ff;stroke-opacity:0.75;" x="94.642232" xlink:href="#mc540fb6dfb" y="175.564387"/>
     <use style="fill:#8000ff;fill-opacity:0.75;stroke:#8000ff;stroke-opacity:0.75;" x="120.848524" xlink:href="#mc540fb6dfb" y="156.526385"/>
     <use style="fill:#8000ff;fill-opacity:0.75;stroke:#8000ff;stroke-opacity:0.75;" x="159.930214" xlink:href="#mc540fb6dfb" y="144.84503"/>
     <use style="fill:#8000ff;fill-opacity:0.75;stroke:#8000ff;stroke-opacity:0.75;" x="156.213082" xlink:href="#mc540fb6dfb" y="166.330013"/>
     <use style="fill:#8000ff;fill-opacity:0.75;stroke:#8000ff;stroke-opacity:0.75;" x="138.852654" xlink:href="#mc540fb6dfb" y="165.882957"/>
     <use style="fill:#8000ff;fill-opacity:0.75;stroke:#8000ff;stroke-opacity:0.75;" x="155.072409" xlink:href="#mc540fb6dfb" y="163.05501"/>
     <use style="fill:#8000ff;fill-opacity:0.75;stroke:#8000ff;stroke-opacity:0.75;" x="210.749283" xlink:href="#mc540fb6dfb" y="167.434326"/>
     <use style="fill:#8000ff;fill-opacity:0.75;stroke:#8000ff;stroke-opacity:0.75;" x="177.500048" xlink:href="#mc540fb6dfb" y="201.054319"/>
     <use style="fill:#8000ff;fill-opacity:0.75;stroke:#8000ff;stroke-opacity:0.75;" x="212.056268" xlink:href="#mc540fb6dfb" y="213.805441"/>
     <use style="fill:#8000ff;fill-opacity:0.75;stroke:#8000ff;stroke-opacity:0.75;" x="189.16195" xlink:href="#mc540fb6dfb" y="151.953295"/>
     <use style="fill:#8000ff;fill-opacity:0.75;stroke:#8000ff;stroke-opacity:0.75;" x="252.030412" xlink:href="#mc540fb6dfb" y="161.329017"/>
     <use style="fill:#8000ff;fill-opacity:0.75;stroke:#8000ff;stroke-opacity:0.75;" x="155.312193" xlink:href="#mc540fb6dfb" y="129.291793"/>
     <use style="fill:#8000ff;fill-opacity:0.75;stroke:#8000ff;stroke-opacity:0.75;" x="170.012515" xlink:href="#mc540fb6dfb" y="132.777413"/>
     <use style="fill:#8000ff;fill-opacity:0.75;stroke:#8000ff;stroke-opacity:0.75;" x="136.130576" xlink:href="#mc540fb6dfb" y="132.673547"/>
     <use style="fill:#8000ff;fill-opacity:0.75;stroke:#8000ff;stroke-opacity:0.75;" x="213.893136" xlink:href="#mc540fb6dfb" y="188.973085"/>
     <use style="fill:#8000ff;fill-opacity:0.75;stroke:#8000ff;stroke-opacity:0.75;" x="219.075545" xlink:href="#mc540fb6dfb" y="171.500429"/>
    </g>
   </g>
   <g id="PathCollection_2">
    <defs>
     <path d="M 0 0.5 
C 0.132602 0.5 0.25979 0.447317 0.353553 0.353553 
C 0.447317 0.25979 0.5 0.132602 0.5 0 
C 0.5 -0.132602 0.447317 -0.25979 0.353553 -0.353553 
C 0.25979 -0.447317 0.132602 -0.5 0 -0.5 
C -0.132602 -0.5 -0.25979 -0.447317 -0.353553 -0.353553 
C -0.447317 -0.25979 -0.5 -0.132602 -0.5 0 
C -0.5 0.132602 -0.447317 0.25979 -0.353553 0.353553 
C -0.25979 0.447317 -0.132602 0.5 0 0.5 
z
" id="m4421139f6e" style="stroke:#80ffb4;stroke-opacity:0.75;"/>
    </defs>
    <g clip-path="url(#pe5ac00ab7a)">
     <use style="fill:#80ffb4;fill-opacity:0.75;stroke:#80ffb4;stroke-opacity:0.75;" x="82.498278" xlink:href="#m4421139f6e" y="200.210213"/>
     <use style="fill:#80ffb4;fill-opacity:0.75;stroke:#80ffb4;stroke-opacity:0.75;" x="94.624636" xlink:href="#m4421139f6e" y="177.814046"/>
     <use style="fill:#80ffb4;fill-opacity:0.75;stroke:#80ffb4;stroke-opacity:0.75;" x="79.095316" xlink:href="#m4421139f6e" y="199.712743"/>
     <use style="fill:#80ffb4;fill-opacity:0.75;stroke:#80ffb4;stroke-opacity:0.75;" x="90.124536" xlink:href="#m4421139f6e" y="187.533437"/>
     <use style="fill:#80ffb4;fill-opacity:0.75;stroke:#80ffb4;stroke-opacity:0.75;" x="77.868069" xlink:href="#m4421139f6e" y="207.445648"/>
     <use style="fill:#80ffb4;fill-opacity:0.75;stroke:#80ffb4;stroke-opacity:0.75;" x="75.84373" xlink:href="#m4421139f6e" y="207.667577"/>
     <use style="fill:#80ffb4;fill-opacity:0.75;stroke:#80ffb4;stroke-opacity:0.75;" x="94.41626" xlink:href="#m4421139f6e" y="180.542355"/>
     <use style="fill:#80ffb4;fill-opacity:0.75;stroke:#80ffb4;stroke-opacity:0.75;" x="81.485483" xlink:href="#m4421139f6e" y="206.392767"/>
     <use style="fill:#80ffb4;fill-opacity:0.75;stroke:#80ffb4;stroke-opacity:0.75;" x="81.913346" xlink:href="#m4421139f6e" y="205.695951"/>
     <use style="fill:#80ffb4;fill-opacity:0.75;stroke:#80ffb4;stroke-opacity:0.75;" x="102.134058" xlink:href="#m4421139f6e" y="161.977202"/>
     <use style="fill:#80ffb4;fill-opacity:0.75;stroke:#80ffb4;stroke-opacity:0.75;" x="98.862978" xlink:href="#m4421139f6e" y="120.536925"/>
     <use style="fill:#80ffb4;fill-opacity:0.75;stroke:#80ffb4;stroke-opacity:0.75;" x="118.414873" xlink:href="#m4421139f6e" y="163.005361"/>
     <use style="fill:#80ffb4;fill-opacity:0.75;stroke:#80ffb4;stroke-opacity:0.75;" x="77.506926" xlink:href="#m4421139f6e" y="208.251049"/>
     <use style="fill:#80ffb4;fill-opacity:0.75;stroke:#80ffb4;stroke-opacity:0.75;" x="80.037409" xlink:href="#m4421139f6e" y="203.24697"/>
     <use style="fill:#80ffb4;fill-opacity:0.75;stroke:#80ffb4;stroke-opacity:0.75;" x="139.419928" xlink:href="#m4421139f6e" y="86.373847"/>
     <use style="fill:#80ffb4;fill-opacity:0.75;stroke:#80ffb4;stroke-opacity:0.75;" x="120.945058" xlink:href="#m4421139f6e" y="165.509794"/>
     <use style="fill:#80ffb4;fill-opacity:0.75;stroke:#80ffb4;stroke-opacity:0.75;" x="78.194795" xlink:href="#m4421139f6e" y="203.111002"/>
     <use style="fill:#80ffb4;fill-opacity:0.75;stroke:#80ffb4;stroke-opacity:0.75;" x="76.895775" xlink:href="#m4421139f6e" y="210.010651"/>
     <use style="fill:#80ffb4;fill-opacity:0.75;stroke:#80ffb4;stroke-opacity:0.75;" x="81.507092" xlink:href="#m4421139f6e" y="188.354085"/>
     <use style="fill:#80ffb4;fill-opacity:0.75;stroke:#80ffb4;stroke-opacity:0.75;" x="102.346798" xlink:href="#m4421139f6e" y="131.713805"/>
     <use style="fill:#80ffb4;fill-opacity:0.75;stroke:#80ffb4;stroke-opacity:0.75;" x="79.670165" xlink:href="#m4421139f6e" y="197.590547"/>
     <use style="fill:#80ffb4;fill-opacity:0.75;stroke:#80ffb4;stroke-opacity:0.75;" x="74.169652" xlink:href="#m4421139f6e" y="218.025582"/>
     <use style="fill:#80ffb4;fill-opacity:0.75;stroke:#80ffb4;stroke-opacity:0.75;" x="97.947248" xlink:href="#m4421139f6e" y="190.588834"/>
     <use style="fill:#80ffb4;fill-opacity:0.75;stroke:#80ffb4;stroke-opacity:0.75;" x="90.03456" xlink:href="#m4421139f6e" y="200.168425"/>
     <use style="fill:#80ffb4;fill-opacity:0.75;stroke:#80ffb4;stroke-opacity:0.75;" x="82.215903" xlink:href="#m4421139f6e" y="201.313693"/>
     <use style="fill:#80ffb4;fill-opacity:0.75;stroke:#80ffb4;stroke-opacity:0.75;" x="82.527304" xlink:href="#m4421139f6e" y="196.237675"/>
     <use style="fill:#80ffb4;fill-opacity:0.75;stroke:#80ffb4;stroke-opacity:0.75;" x="79.092518" xlink:href="#m4421139f6e" y="200.077453"/>
     <use style="fill:#80ffb4;fill-opacity:0.75;stroke:#80ffb4;stroke-opacity:0.75;" x="81.169757" xlink:href="#m4421139f6e" y="200.120952"/>
     <use style="fill:#80ffb4;fill-opacity:0.75;stroke:#80ffb4;stroke-opacity:0.75;" x="85.069429" xlink:href="#m4421139f6e" y="196.083021"/>
     <use style="fill:#80ffb4;fill-opacity:0.75;stroke:#80ffb4;stroke-opacity:0.75;" x="94.514308" xlink:href="#m4421139f6e" y="193.448515"/>
     <use style="fill:#80ffb4;fill-opacity:0.75;stroke:#80ffb4;stroke-opacity:0.75;" x="89.580468" xlink:href="#m4421139f6e" y="206.814733"/>
     <use style="fill:#80ffb4;fill-opacity:0.75;stroke:#80ffb4;stroke-opacity:0.75;" x="80.391903" xlink:href="#m4421139f6e" y="205.954039"/>
     <use style="fill:#80ffb4;fill-opacity:0.75;stroke:#80ffb4;stroke-opacity:0.75;" x="79.054973" xlink:href="#m4421139f6e" y="205.485731"/>
     <use style="fill:#80ffb4;fill-opacity:0.75;stroke:#80ffb4;stroke-opacity:0.75;" x="81.13266" xlink:href="#m4421139f6e" y="205.401821"/>
     <use style="fill:#80ffb4;fill-opacity:0.75;stroke:#80ffb4;stroke-opacity:0.75;" x="74.377876" xlink:href="#m4421139f6e" y="216.85809"/>
     <use style="fill:#80ffb4;fill-opacity:0.75;stroke:#80ffb4;stroke-opacity:0.75;" x="75.572651" xlink:href="#m4421139f6e" y="210.25872"/>
     <use style="fill:#80ffb4;fill-opacity:0.75;stroke:#80ffb4;stroke-opacity:0.75;" x="130.487875" xlink:href="#m4421139f6e" y="53.875742"/>
     <use style="fill:#80ffb4;fill-opacity:0.75;stroke:#80ffb4;stroke-opacity:0.75;" x="89.947864" xlink:href="#m4421139f6e" y="154.627555"/>
     <use style="fill:#80ffb4;fill-opacity:0.75;stroke:#80ffb4;stroke-opacity:0.75;" x="78.162404" xlink:href="#m4421139f6e" y="207.785127"/>
     <use style="fill:#80ffb4;fill-opacity:0.75;stroke:#80ffb4;stroke-opacity:0.75;" x="92.679361" xlink:href="#m4421139f6e" y="190.882576"/>
     <use style="fill:#80ffb4;fill-opacity:0.75;stroke:#80ffb4;stroke-opacity:0.75;" x="77.368967" xlink:href="#m4421139f6e" y="208.193381"/>
     <use style="fill:#80ffb4;fill-opacity:0.75;stroke:#80ffb4;stroke-opacity:0.75;" x="97.606594" xlink:href="#m4421139f6e" y="179.46967"/>
     <use style="fill:#80ffb4;fill-opacity:0.75;stroke:#80ffb4;stroke-opacity:0.75;" x="85.064502" xlink:href="#m4421139f6e" y="196.695852"/>
     <use style="fill:#80ffb4;fill-opacity:0.75;stroke:#80ffb4;stroke-opacity:0.75;" x="78.594008" xlink:href="#m4421139f6e" y="201.484748"/>
     <use style="fill:#80ffb4;fill-opacity:0.75;stroke:#80ffb4;stroke-opacity:0.75;" x="77.682139" xlink:href="#m4421139f6e" y="208.196308"/>
     <use style="fill:#80ffb4;fill-opacity:0.75;stroke:#80ffb4;stroke-opacity:0.75;" x="93.763804" xlink:href="#m4421139f6e" y="192.877374"/>
     <use style="fill:#80ffb4;fill-opacity:0.75;stroke:#80ffb4;stroke-opacity:0.75;" x="74.867461" xlink:href="#m4421139f6e" y="214.51922"/>
     <use style="fill:#80ffb4;fill-opacity:0.75;stroke:#80ffb4;stroke-opacity:0.75;" x="81.920323" xlink:href="#m4421139f6e" y="204.658257"/>
     <use style="fill:#80ffb4;fill-opacity:0.75;stroke:#80ffb4;stroke-opacity:0.75;" x="80.795617" xlink:href="#m4421139f6e" y="203.688103"/>
     <use style="fill:#80ffb4;fill-opacity:0.75;stroke:#80ffb4;stroke-opacity:0.75;" x="74.807156" xlink:href="#m4421139f6e" y="214.405829"/>
     <use style="fill:#80ffb4;fill-opacity:0.75;stroke:#80ffb4;stroke-opacity:0.75;" x="94.581279" xlink:href="#m4421139f6e" y="184.046483"/>
     <use style="fill:#80ffb4;fill-opacity:0.75;stroke:#80ffb4;stroke-opacity:0.75;" x="85.15419" xlink:href="#m4421139f6e" y="183.980044"/>
     <use style="fill:#80ffb4;fill-opacity:0.75;stroke:#80ffb4;stroke-opacity:0.75;" x="75.081093" xlink:href="#m4421139f6e" y="214.245125"/>
     <use style="fill:#80ffb4;fill-opacity:0.75;stroke:#80ffb4;stroke-opacity:0.75;" x="88.344669" xlink:href="#m4421139f6e" y="182.131813"/>
     <use style="fill:#80ffb4;fill-opacity:0.75;stroke:#80ffb4;stroke-opacity:0.75;" x="78.405746" xlink:href="#m4421139f6e" y="205.92985"/>
     <use style="fill:#80ffb4;fill-opacity:0.75;stroke:#80ffb4;stroke-opacity:0.75;" x="76.671188" xlink:href="#m4421139f6e" y="210.907754"/>
     <use style="fill:#80ffb4;fill-opacity:0.75;stroke:#80ffb4;stroke-opacity:0.75;" x="77.396884" xlink:href="#m4421139f6e" y="209.060888"/>
     <use style="fill:#80ffb4;fill-opacity:0.75;stroke:#80ffb4;stroke-opacity:0.75;" x="81.153968" xlink:href="#m4421139f6e" y="202.327276"/>
     <use style="fill:#80ffb4;fill-opacity:0.75;stroke:#80ffb4;stroke-opacity:0.75;" x="75.591721" xlink:href="#m4421139f6e" y="207.477414"/>
     <use style="fill:#80ffb4;fill-opacity:0.75;stroke:#80ffb4;stroke-opacity:0.75;" x="76.269655" xlink:href="#m4421139f6e" y="213.254248"/>
     <use style="fill:#80ffb4;fill-opacity:0.75;stroke:#80ffb4;stroke-opacity:0.75;" x="85.191688" xlink:href="#m4421139f6e" y="197.188629"/>
     <use style="fill:#80ffb4;fill-opacity:0.75;stroke:#80ffb4;stroke-opacity:0.75;" x="89.727469" xlink:href="#m4421139f6e" y="186.122737"/>
     <use style="fill:#80ffb4;fill-opacity:0.75;stroke:#80ffb4;stroke-opacity:0.75;" x="79.821775" xlink:href="#m4421139f6e" y="188.680159"/>
     <use style="fill:#80ffb4;fill-opacity:0.75;stroke:#80ffb4;stroke-opacity:0.75;" x="76.116991" xlink:href="#m4421139f6e" y="206.955557"/>
     <use style="fill:#80ffb4;fill-opacity:0.75;stroke:#80ffb4;stroke-opacity:0.75;" x="76.521922" xlink:href="#m4421139f6e" y="210.647709"/>
     <use style="fill:#80ffb4;fill-opacity:0.75;stroke:#80ffb4;stroke-opacity:0.75;" x="76.512934" xlink:href="#m4421139f6e" y="211.926994"/>
     <use style="fill:#80ffb4;fill-opacity:0.75;stroke:#80ffb4;stroke-opacity:0.75;" x="76.458841" xlink:href="#m4421139f6e" y="211.154562"/>
     <use style="fill:#80ffb4;fill-opacity:0.75;stroke:#80ffb4;stroke-opacity:0.75;" x="75.731782" xlink:href="#m4421139f6e" y="212.733449"/>
     <use style="fill:#80ffb4;fill-opacity:0.75;stroke:#80ffb4;stroke-opacity:0.75;" x="79.779096" xlink:href="#m4421139f6e" y="201.172363"/>
     <use style="fill:#80ffb4;fill-opacity:0.75;stroke:#80ffb4;stroke-opacity:0.75;" x="75.481784" xlink:href="#m4421139f6e" y="212.864253"/>
     <use style="fill:#80ffb4;fill-opacity:0.75;stroke:#80ffb4;stroke-opacity:0.75;" x="86.24811" xlink:href="#m4421139f6e" y="200.79698"/>
    </g>
   </g>
   <g id="PathCollection_3">
    <defs>
     <path d="M 0 0.5 
C 0.132602 0.5 0.25979 0.447317 0.353553 0.353553 
C 0.447317 0.25979 0.5 0.132602 0.5 0 
C 0.5 -0.132602 0.447317 -0.25979 0.353553 -0.353553 
C 0.25979 -0.447317 0.132602 -0.5 0 -0.5 
C -0.132602 -0.5 -0.25979 -0.447317 -0.353553 -0.353553 
C -0.447317 -0.25979 -0.5 -0.132602 -0.5 0 
C -0.5 0.132602 -0.447317 0.25979 -0.353553 0.353553 
C -0.25979 0.447317 -0.132602 0.5 0 0.5 
z
" id="mdf4c7d1225" style="stroke:#ff0000;stroke-opacity:0.75;"/>
    </defs>
    <g clip-path="url(#pe5ac00ab7a)">
     <use style="fill:#ff0000;fill-opacity:0.75;stroke:#ff0000;stroke-opacity:0.75;" x="90.288019" xlink:href="#mdf4c7d1225" y="164.224529"/>
     <use style="fill:#ff0000;fill-opacity:0.75;stroke:#ff0000;stroke-opacity:0.75;" x="83.146189" xlink:href="#mdf4c7d1225" y="189.271597"/>
     <use style="fill:#ff0000;fill-opacity:0.75;stroke:#ff0000;stroke-opacity:0.75;" x="84.984531" xlink:href="#mdf4c7d1225" y="189.765202"/>
     <use style="fill:#ff0000;fill-opacity:0.75;stroke:#ff0000;stroke-opacity:0.75;" x="87.831042" xlink:href="#mdf4c7d1225" y="180.364355"/>
     <use style="fill:#ff0000;fill-opacity:0.75;stroke:#ff0000;stroke-opacity:0.75;" x="91.769359" xlink:href="#mdf4c7d1225" y="194.160079"/>
     <use style="fill:#ff0000;fill-opacity:0.75;stroke:#ff0000;stroke-opacity:0.75;" x="96.052015" xlink:href="#mdf4c7d1225" y="183.283616"/>
     <use style="fill:#ff0000;fill-opacity:0.75;stroke:#ff0000;stroke-opacity:0.75;" x="98.609503" xlink:href="#mdf4c7d1225" y="186.94431"/>
     <use style="fill:#ff0000;fill-opacity:0.75;stroke:#ff0000;stroke-opacity:0.75;" x="82.260265" xlink:href="#mdf4c7d1225" y="194.994992"/>
     <use style="fill:#ff0000;fill-opacity:0.75;stroke:#ff0000;stroke-opacity:0.75;" x="86.287347" xlink:href="#mdf4c7d1225" y="195.358869"/>
     <use style="fill:#ff0000;fill-opacity:0.75;stroke:#ff0000;stroke-opacity:0.75;" x="87.068532" xlink:href="#mdf4c7d1225" y="184.845873"/>
     <use style="fill:#ff0000;fill-opacity:0.75;stroke:#ff0000;stroke-opacity:0.75;" x="87.777437" xlink:href="#mdf4c7d1225" y="187.962443"/>
     <use style="fill:#ff0000;fill-opacity:0.75;stroke:#ff0000;stroke-opacity:0.75;" x="105.596647" xlink:href="#mdf4c7d1225" y="185.194956"/>
     <use style="fill:#ff0000;fill-opacity:0.75;stroke:#ff0000;stroke-opacity:0.75;" x="82.543396" xlink:href="#mdf4c7d1225" y="194.06374"/>
     <use style="fill:#ff0000;fill-opacity:0.75;stroke:#ff0000;stroke-opacity:0.75;" x="84.312677" xlink:href="#mdf4c7d1225" y="194.771799"/>
     <use style="fill:#ff0000;fill-opacity:0.75;stroke:#ff0000;stroke-opacity:0.75;" x="116.203762" xlink:href="#mdf4c7d1225" y="150.269723"/>
     <use style="fill:#ff0000;fill-opacity:0.75;stroke:#ff0000;stroke-opacity:0.75;" x="112.426058" xlink:href="#mdf4c7d1225" y="165.973502"/>
     <use style="fill:#ff0000;fill-opacity:0.75;stroke:#ff0000;stroke-opacity:0.75;" x="77.667928" xlink:href="#mdf4c7d1225" y="210.315387"/>
     <use style="fill:#ff0000;fill-opacity:0.75;stroke:#ff0000;stroke-opacity:0.75;" x="89.673039" xlink:href="#mdf4c7d1225" y="194.023082"/>
     <use style="fill:#ff0000;fill-opacity:0.75;stroke:#ff0000;stroke-opacity:0.75;" x="91.818651" xlink:href="#mdf4c7d1225" y="187.484085"/>
     <use style="fill:#ff0000;fill-opacity:0.75;stroke:#ff0000;stroke-opacity:0.75;" x="84.40874" xlink:href="#mdf4c7d1225" y="181.221801"/>
     <use style="fill:#ff0000;fill-opacity:0.75;stroke:#ff0000;stroke-opacity:0.75;" x="81.553524" xlink:href="#mdf4c7d1225" y="181.941929"/>
     <use style="fill:#ff0000;fill-opacity:0.75;stroke:#ff0000;stroke-opacity:0.75;" x="80.50175" xlink:href="#mdf4c7d1225" y="190.485058"/>
     <use style="fill:#ff0000;fill-opacity:0.75;stroke:#ff0000;stroke-opacity:0.75;" x="78.136261" xlink:href="#mdf4c7d1225" y="195.42823"/>
     <use style="fill:#ff0000;fill-opacity:0.75;stroke:#ff0000;stroke-opacity:0.75;" x="94.134215" xlink:href="#mdf4c7d1225" y="180.622024"/>
     <use style="fill:#ff0000;fill-opacity:0.75;stroke:#ff0000;stroke-opacity:0.75;" x="91.018678" xlink:href="#mdf4c7d1225" y="178.957462"/>
     <use style="fill:#ff0000;fill-opacity:0.75;stroke:#ff0000;stroke-opacity:0.75;" x="99.185104" xlink:href="#mdf4c7d1225" y="182.152814"/>
     <use style="fill:#ff0000;fill-opacity:0.75;stroke:#ff0000;stroke-opacity:0.75;" x="80.421878" xlink:href="#mdf4c7d1225" y="201.916091"/>
     <use style="fill:#ff0000;fill-opacity:0.75;stroke:#ff0000;stroke-opacity:0.75;" x="119.945097" xlink:href="#mdf4c7d1225" y="170.746455"/>
     <use style="fill:#ff0000;fill-opacity:0.75;stroke:#ff0000;stroke-opacity:0.75;" x="92.754219" xlink:href="#mdf4c7d1225" y="180.906747"/>
     <use style="fill:#ff0000;fill-opacity:0.75;stroke:#ff0000;stroke-opacity:0.75;" x="89.290843" xlink:href="#mdf4c7d1225" y="191.741702"/>
     <use style="fill:#ff0000;fill-opacity:0.75;stroke:#ff0000;stroke-opacity:0.75;" x="82.50622" xlink:href="#mdf4c7d1225" y="199.397906"/>
     <use style="fill:#ff0000;fill-opacity:0.75;stroke:#ff0000;stroke-opacity:0.75;" x="94.672108" xlink:href="#mdf4c7d1225" y="171.397875"/>
     <use style="fill:#ff0000;fill-opacity:0.75;stroke:#ff0000;stroke-opacity:0.75;" x="85.687685" xlink:href="#mdf4c7d1225" y="183.522687"/>
     <use style="fill:#ff0000;fill-opacity:0.75;stroke:#ff0000;stroke-opacity:0.75;" x="94.185384" xlink:href="#mdf4c7d1225" y="173.079741"/>
     <use style="fill:#ff0000;fill-opacity:0.75;stroke:#ff0000;stroke-opacity:0.75;" x="88.899056" xlink:href="#mdf4c7d1225" y="191.32852"/>
     <use style="fill:#ff0000;fill-opacity:0.75;stroke:#ff0000;stroke-opacity:0.75;" x="82.50745" xlink:href="#mdf4c7d1225" y="199.249002"/>
     <use style="fill:#ff0000;fill-opacity:0.75;stroke:#ff0000;stroke-opacity:0.75;" x="96.180585" xlink:href="#mdf4c7d1225" y="165.481118"/>
     <use style="fill:#ff0000;fill-opacity:0.75;stroke:#ff0000;stroke-opacity:0.75;" x="95.025767" xlink:href="#mdf4c7d1225" y="189.537024"/>
     <use style="fill:#ff0000;fill-opacity:0.75;stroke:#ff0000;stroke-opacity:0.75;" x="102.104973" xlink:href="#mdf4c7d1225" y="166.617837"/>
     <use style="fill:#ff0000;fill-opacity:0.75;stroke:#ff0000;stroke-opacity:0.75;" x="90.237866" xlink:href="#mdf4c7d1225" y="171.753296"/>
     <use style="fill:#ff0000;fill-opacity:0.75;stroke:#ff0000;stroke-opacity:0.75;" x="81.981994" xlink:href="#mdf4c7d1225" y="195.902555"/>
     <use style="fill:#ff0000;fill-opacity:0.75;stroke:#ff0000;stroke-opacity:0.75;" x="79.939887" xlink:href="#mdf4c7d1225" y="204.137206"/>
     <use style="fill:#ff0000;fill-opacity:0.75;stroke:#ff0000;stroke-opacity:0.75;" x="92.702519" xlink:href="#mdf4c7d1225" y="187.887416"/>
     <use style="fill:#ff0000;fill-opacity:0.75;stroke:#ff0000;stroke-opacity:0.75;" x="100.86729" xlink:href="#mdf4c7d1225" y="179.341067"/>
     <use style="fill:#ff0000;fill-opacity:0.75;stroke:#ff0000;stroke-opacity:0.75;" x="102.077462" xlink:href="#mdf4c7d1225" y="170.360232"/>
     <use style="fill:#ff0000;fill-opacity:0.75;stroke:#ff0000;stroke-opacity:0.75;" x="113.330805" xlink:href="#mdf4c7d1225" y="139.811864"/>
     <use style="fill:#ff0000;fill-opacity:0.75;stroke:#ff0000;stroke-opacity:0.75;" x="114.057964" xlink:href="#mdf4c7d1225" y="139.326252"/>
     <use style="fill:#ff0000;fill-opacity:0.75;stroke:#ff0000;stroke-opacity:0.75;" x="84.977733" xlink:href="#mdf4c7d1225" y="190.941116"/>
    </g>
   </g>
   <g id="matplotlib.axis_1">
    <g id="xtick_1">
     <g id="line2d_1">
      <defs>
       <path d="M 0 0 
L 0 3.5 
" id="mf0f4c01115" style="stroke:#000000;stroke-width:0.8;"/>
      </defs>
      <g>
       <use style="stroke:#000000;stroke-width:0.8;" x="118.447835" xlink:href="#mf0f4c01115" y="307.584"/>
      </g>
     </g>
     <g id="text_1">
      <!-- 0 -->
      <defs>
       <path d="M 31.78125 66.40625 
Q 24.171875 66.40625 20.328125 58.90625 
Q 16.5 51.421875 16.5 36.375 
Q 16.5 21.390625 20.328125 13.890625 
Q 24.171875 6.390625 31.78125 6.390625 
Q 39.453125 6.390625 43.28125 13.890625 
Q 47.125 21.390625 47.125 36.375 
Q 47.125 51.421875 43.28125 58.90625 
Q 39.453125 66.40625 31.78125 66.40625 
z
M 31.78125 74.21875 
Q 44.046875 74.21875 50.515625 64.515625 
Q 56.984375 54.828125 56.984375 36.375 
Q 56.984375 17.96875 50.515625 8.265625 
Q 44.046875 -1.421875 31.78125 -1.421875 
Q 19.53125 -1.421875 13.0625 8.265625 
Q 6.59375 17.96875 6.59375 36.375 
Q 6.59375 54.828125 13.0625 64.515625 
Q 19.53125 74.21875 31.78125 74.21875 
z
" id="DejaVuSans-48"/>
      </defs>
      <g transform="translate(115.266585 322.182437)scale(0.1 -0.1)">
       <use xlink:href="#DejaVuSans-48"/>
      </g>
     </g>
    </g>
    <g id="xtick_2">
     <g id="line2d_2">
      <g>
       <use style="stroke:#000000;stroke-width:0.8;" x="182.461874" xlink:href="#mf0f4c01115" y="307.584"/>
      </g>
     </g>
     <g id="text_2">
      <!-- 2 -->
      <defs>
       <path d="M 19.1875 8.296875 
L 53.609375 8.296875 
L 53.609375 0 
L 7.328125 0 
L 7.328125 8.296875 
Q 12.9375 14.109375 22.625 23.890625 
Q 32.328125 33.6875 34.8125 36.53125 
Q 39.546875 41.84375 41.421875 45.53125 
Q 43.3125 49.21875 43.3125 52.78125 
Q 43.3125 58.59375 39.234375 62.25 
Q 35.15625 65.921875 28.609375 65.921875 
Q 23.96875 65.921875 18.8125 64.3125 
Q 13.671875 62.703125 7.8125 59.421875 
L 7.8125 69.390625 
Q 13.765625 71.78125 18.9375 73 
Q 24.125 74.21875 28.421875 74.21875 
Q 39.75 74.21875 46.484375 68.546875 
Q 53.21875 62.890625 53.21875 53.421875 
Q 53.21875 48.921875 51.53125 44.890625 
Q 49.859375 40.875 45.40625 35.40625 
Q 44.1875 33.984375 37.640625 27.21875 
Q 31.109375 20.453125 19.1875 8.296875 
z
" id="DejaVuSans-50"/>
      </defs>
      <g transform="translate(179.280624 322.182437)scale(0.1 -0.1)">
       <use xlink:href="#DejaVuSans-50"/>
      </g>
     </g>
    </g>
    <g id="xtick_3">
     <g id="line2d_3">
      <g>
       <use style="stroke:#000000;stroke-width:0.8;" x="246.475914" xlink:href="#mf0f4c01115" y="307.584"/>
      </g>
     </g>
     <g id="text_3">
      <!-- 4 -->
      <defs>
       <path d="M 37.796875 64.3125 
L 12.890625 25.390625 
L 37.796875 25.390625 
z
M 35.203125 72.90625 
L 47.609375 72.90625 
L 47.609375 25.390625 
L 58.015625 25.390625 
L 58.015625 17.1875 
L 47.609375 17.1875 
L 47.609375 0 
L 37.796875 0 
L 37.796875 17.1875 
L 4.890625 17.1875 
L 4.890625 26.703125 
z
" id="DejaVuSans-52"/>
      </defs>
      <g transform="translate(243.294664 322.182437)scale(0.1 -0.1)">
       <use xlink:href="#DejaVuSans-52"/>
      </g>
     </g>
    </g>
    <g id="xtick_4">
     <g id="line2d_4">
      <g>
       <use style="stroke:#000000;stroke-width:0.8;" x="310.489954" xlink:href="#mf0f4c01115" y="307.584"/>
      </g>
     </g>
     <g id="text_4">
      <!-- 6 -->
      <defs>
       <path d="M 33.015625 40.375 
Q 26.375 40.375 22.484375 35.828125 
Q 18.609375 31.296875 18.609375 23.390625 
Q 18.609375 15.53125 22.484375 10.953125 
Q 26.375 6.390625 33.015625 6.390625 
Q 39.65625 6.390625 43.53125 10.953125 
Q 47.40625 15.53125 47.40625 23.390625 
Q 47.40625 31.296875 43.53125 35.828125 
Q 39.65625 40.375 33.015625 40.375 
z
M 52.59375 71.296875 
L 52.59375 62.3125 
Q 48.875 64.0625 45.09375 64.984375 
Q 41.3125 65.921875 37.59375 65.921875 
Q 27.828125 65.921875 22.671875 59.328125 
Q 17.53125 52.734375 16.796875 39.40625 
Q 19.671875 43.65625 24.015625 45.921875 
Q 28.375 48.1875 33.59375 48.1875 
Q 44.578125 48.1875 50.953125 41.515625 
Q 57.328125 34.859375 57.328125 23.390625 
Q 57.328125 12.15625 50.6875 5.359375 
Q 44.046875 -1.421875 33.015625 -1.421875 
Q 20.359375 -1.421875 13.671875 8.265625 
Q 6.984375 17.96875 6.984375 36.375 
Q 6.984375 53.65625 15.1875 63.9375 
Q 23.390625 74.21875 37.203125 74.21875 
Q 40.921875 74.21875 44.703125 73.484375 
Q 48.484375 72.75 52.59375 71.296875 
z
" id="DejaVuSans-54"/>
      </defs>
      <g transform="translate(307.308704 322.182437)scale(0.1 -0.1)">
       <use xlink:href="#DejaVuSans-54"/>
      </g>
     </g>
    </g>
    <g id="xtick_5">
     <g id="line2d_5">
      <g>
       <use style="stroke:#000000;stroke-width:0.8;" x="374.503993" xlink:href="#mf0f4c01115" y="307.584"/>
      </g>
     </g>
     <g id="text_5">
      <!-- 8 -->
      <defs>
       <path d="M 31.78125 34.625 
Q 24.75 34.625 20.71875 30.859375 
Q 16.703125 27.09375 16.703125 20.515625 
Q 16.703125 13.921875 20.71875 10.15625 
Q 24.75 6.390625 31.78125 6.390625 
Q 38.8125 6.390625 42.859375 10.171875 
Q 46.921875 13.96875 46.921875 20.515625 
Q 46.921875 27.09375 42.890625 30.859375 
Q 38.875 34.625 31.78125 34.625 
z
M 21.921875 38.8125 
Q 15.578125 40.375 12.03125 44.71875 
Q 8.5 49.078125 8.5 55.328125 
Q 8.5 64.0625 14.71875 69.140625 
Q 20.953125 74.21875 31.78125 74.21875 
Q 42.671875 74.21875 48.875 69.140625 
Q 55.078125 64.0625 55.078125 55.328125 
Q 55.078125 49.078125 51.53125 44.71875 
Q 48 40.375 41.703125 38.8125 
Q 48.828125 37.15625 52.796875 32.3125 
Q 56.78125 27.484375 56.78125 20.515625 
Q 56.78125 9.90625 50.3125 4.234375 
Q 43.84375 -1.421875 31.78125 -1.421875 
Q 19.734375 -1.421875 13.25 4.234375 
Q 6.78125 9.90625 6.78125 20.515625 
Q 6.78125 27.484375 10.78125 32.3125 
Q 14.796875 37.15625 21.921875 38.8125 
z
M 18.3125 54.390625 
Q 18.3125 48.734375 21.84375 45.5625 
Q 25.390625 42.390625 31.78125 42.390625 
Q 38.140625 42.390625 41.71875 45.5625 
Q 45.3125 48.734375 45.3125 54.390625 
Q 45.3125 60.0625 41.71875 63.234375 
Q 38.140625 66.40625 31.78125 66.40625 
Q 25.390625 66.40625 21.84375 63.234375 
Q 18.3125 60.0625 18.3125 54.390625 
z
" id="DejaVuSans-56"/>
      </defs>
      <g transform="translate(371.322743 322.182437)scale(0.1 -0.1)">
       <use xlink:href="#DejaVuSans-56"/>
      </g>
     </g>
    </g>
    <g id="text_6">
     <!-- 1e7 -->
     <defs>
      <path d="M 12.40625 8.296875 
L 28.515625 8.296875 
L 28.515625 63.921875 
L 10.984375 60.40625 
L 10.984375 69.390625 
L 28.421875 72.90625 
L 38.28125 72.90625 
L 38.28125 8.296875 
L 54.390625 8.296875 
L 54.390625 0 
L 12.40625 0 
z
" id="DejaVuSans-49"/>
      <path d="M 56.203125 29.59375 
L 56.203125 25.203125 
L 14.890625 25.203125 
Q 15.484375 15.921875 20.484375 11.0625 
Q 25.484375 6.203125 34.421875 6.203125 
Q 39.59375 6.203125 44.453125 7.46875 
Q 49.3125 8.734375 54.109375 11.28125 
L 54.109375 2.78125 
Q 49.265625 0.734375 44.1875 -0.34375 
Q 39.109375 -1.421875 33.890625 -1.421875 
Q 20.796875 -1.421875 13.15625 6.1875 
Q 5.515625 13.8125 5.515625 26.8125 
Q 5.515625 40.234375 12.765625 48.109375 
Q 20.015625 56 32.328125 56 
Q 43.359375 56 49.78125 48.890625 
Q 56.203125 41.796875 56.203125 29.59375 
z
M 47.21875 32.234375 
Q 47.125 39.59375 43.09375 43.984375 
Q 39.0625 48.390625 32.421875 48.390625 
Q 24.90625 48.390625 20.390625 44.140625 
Q 15.875 39.890625 15.1875 32.171875 
z
" id="DejaVuSans-101"/>
      <path d="M 8.203125 72.90625 
L 55.078125 72.90625 
L 55.078125 68.703125 
L 28.609375 0 
L 18.3125 0 
L 43.21875 64.59375 
L 8.203125 64.59375 
z
" id="DejaVuSans-55"/>
     </defs>
     <g transform="translate(395.841875 334.860562)scale(0.1 -0.1)">
      <use xlink:href="#DejaVuSans-49"/>
      <use x="63.623047" xlink:href="#DejaVuSans-101"/>
      <use x="125.146484" xlink:href="#DejaVuSans-55"/>
     </g>
    </g>
   </g>
   <g id="matplotlib.axis_2">
    <g id="ytick_1">
     <g id="line2d_6">
      <defs>
       <path d="M 0 0 
L -3.5 0 
" id="m085fb3ed48" style="stroke:#000000;stroke-width:0.8;"/>
      </defs>
      <g>
       <use style="stroke:#000000;stroke-width:0.8;" x="57.6" xlink:href="#m085fb3ed48" y="294.451207"/>
      </g>
     </g>
     <g id="text_7">
      <!-- −2000000 -->
      <defs>
       <path d="M 10.59375 35.5 
L 73.1875 35.5 
L 73.1875 27.203125 
L 10.59375 27.203125 
z
" id="DejaVuSans-8722"/>
      </defs>
      <g transform="translate(-2.317188 298.250426)scale(0.1 -0.1)">
       <use xlink:href="#DejaVuSans-8722"/>
       <use x="83.789062" xlink:href="#DejaVuSans-50"/>
       <use x="147.412109" xlink:href="#DejaVuSans-48"/>
       <use x="211.035156" xlink:href="#DejaVuSans-48"/>
       <use x="274.658203" xlink:href="#DejaVuSans-48"/>
       <use x="338.28125" xlink:href="#DejaVuSans-48"/>
       <use x="401.904297" xlink:href="#DejaVuSans-48"/>
       <use x="465.527344" xlink:href="#DejaVuSans-48"/>
      </g>
     </g>
    </g>
    <g id="ytick_2">
     <g id="line2d_7">
      <g>
       <use style="stroke:#000000;stroke-width:0.8;" x="57.6" xlink:href="#m085fb3ed48" y="239.214436"/>
      </g>
     </g>
     <g id="text_8">
      <!-- −1000000 -->
      <g transform="translate(-2.317188 243.013655)scale(0.1 -0.1)">
       <use xlink:href="#DejaVuSans-8722"/>
       <use x="83.789062" xlink:href="#DejaVuSans-49"/>
       <use x="147.412109" xlink:href="#DejaVuSans-48"/>
       <use x="211.035156" xlink:href="#DejaVuSans-48"/>
       <use x="274.658203" xlink:href="#DejaVuSans-48"/>
       <use x="338.28125" xlink:href="#DejaVuSans-48"/>
       <use x="401.904297" xlink:href="#DejaVuSans-48"/>
       <use x="465.527344" xlink:href="#DejaVuSans-48"/>
      </g>
     </g>
    </g>
    <g id="ytick_3">
     <g id="line2d_8">
      <g>
       <use style="stroke:#000000;stroke-width:0.8;" x="57.6" xlink:href="#m085fb3ed48" y="183.977665"/>
      </g>
     </g>
     <g id="text_9">
      <!-- 0 -->
      <g transform="translate(44.2375 187.776884)scale(0.1 -0.1)">
       <use xlink:href="#DejaVuSans-48"/>
      </g>
     </g>
    </g>
    <g id="ytick_4">
     <g id="line2d_9">
      <g>
       <use style="stroke:#000000;stroke-width:0.8;" x="57.6" xlink:href="#m085fb3ed48" y="128.740894"/>
      </g>
     </g>
     <g id="text_10">
      <!-- 1000000 -->
      <g transform="translate(6.0625 132.540112)scale(0.1 -0.1)">
       <use xlink:href="#DejaVuSans-49"/>
       <use x="63.623047" xlink:href="#DejaVuSans-48"/>
       <use x="127.246094" xlink:href="#DejaVuSans-48"/>
       <use x="190.869141" xlink:href="#DejaVuSans-48"/>
       <use x="254.492188" xlink:href="#DejaVuSans-48"/>
       <use x="318.115234" xlink:href="#DejaVuSans-48"/>
       <use x="381.738281" xlink:href="#DejaVuSans-48"/>
      </g>
     </g>
    </g>
    <g id="ytick_5">
     <g id="line2d_10">
      <g>
       <use style="stroke:#000000;stroke-width:0.8;" x="57.6" xlink:href="#m085fb3ed48" y="73.504123"/>
      </g>
     </g>
     <g id="text_11">
      <!-- 2000000 -->
      <g transform="translate(6.0625 77.303341)scale(0.1 -0.1)">
       <use xlink:href="#DejaVuSans-50"/>
       <use x="63.623047" xlink:href="#DejaVuSans-48"/>
       <use x="127.246094" xlink:href="#DejaVuSans-48"/>
       <use x="190.869141" xlink:href="#DejaVuSans-48"/>
       <use x="254.492188" xlink:href="#DejaVuSans-48"/>
       <use x="318.115234" xlink:href="#DejaVuSans-48"/>
       <use x="381.738281" xlink:href="#DejaVuSans-48"/>
      </g>
     </g>
    </g>
   </g>
   <g id="patch_3">
    <path d="M 57.6 307.584 
L 57.6 41.472 
" style="fill:none;stroke:#000000;stroke-linecap:square;stroke-linejoin:miter;stroke-width:0.8;"/>
   </g>
   <g id="patch_4">
    <path d="M 414.72 307.584 
L 414.72 41.472 
" style="fill:none;stroke:#000000;stroke-linecap:square;stroke-linejoin:miter;stroke-width:0.8;"/>
   </g>
   <g id="patch_5">
    <path d="M 57.6 307.584 
L 414.72 307.584 
" style="fill:none;stroke:#000000;stroke-linecap:square;stroke-linejoin:miter;stroke-width:0.8;"/>
   </g>
   <g id="patch_6">
    <path d="M 57.6 41.472 
L 414.72 41.472 
" style="fill:none;stroke:#000000;stroke-linecap:square;stroke-linejoin:miter;stroke-width:0.8;"/>
   </g>
   <g id="text_12">
    <!-- Dataset:Wine (UCI), Algo:Kernel PCA,Classes:3 -->
    <defs>
     <path d="M 19.671875 64.796875 
L 19.671875 8.109375 
L 31.59375 8.109375 
Q 46.6875 8.109375 53.6875 14.9375 
Q 60.6875 21.78125 60.6875 36.53125 
Q 60.6875 51.171875 53.6875 57.984375 
Q 46.6875 64.796875 31.59375 64.796875 
z
M 9.8125 72.90625 
L 30.078125 72.90625 
Q 51.265625 72.90625 61.171875 64.09375 
Q 71.09375 55.28125 71.09375 36.53125 
Q 71.09375 17.671875 61.125 8.828125 
Q 51.171875 0 30.078125 0 
L 9.8125 0 
z
" id="DejaVuSans-68"/>
     <path d="M 34.28125 27.484375 
Q 23.390625 27.484375 19.1875 25 
Q 14.984375 22.515625 14.984375 16.5 
Q 14.984375 11.71875 18.140625 8.90625 
Q 21.296875 6.109375 26.703125 6.109375 
Q 34.1875 6.109375 38.703125 11.40625 
Q 43.21875 16.703125 43.21875 25.484375 
L 43.21875 27.484375 
z
M 52.203125 31.203125 
L 52.203125 0 
L 43.21875 0 
L 43.21875 8.296875 
Q 40.140625 3.328125 35.546875 0.953125 
Q 30.953125 -1.421875 24.3125 -1.421875 
Q 15.921875 -1.421875 10.953125 3.296875 
Q 6 8.015625 6 15.921875 
Q 6 25.140625 12.171875 29.828125 
Q 18.359375 34.515625 30.609375 34.515625 
L 43.21875 34.515625 
L 43.21875 35.40625 
Q 43.21875 41.609375 39.140625 45 
Q 35.0625 48.390625 27.6875 48.390625 
Q 23 48.390625 18.546875 47.265625 
Q 14.109375 46.140625 10.015625 43.890625 
L 10.015625 52.203125 
Q 14.9375 54.109375 19.578125 55.046875 
Q 24.21875 56 28.609375 56 
Q 40.484375 56 46.34375 49.84375 
Q 52.203125 43.703125 52.203125 31.203125 
z
" id="DejaVuSans-97"/>
     <path d="M 18.3125 70.21875 
L 18.3125 54.6875 
L 36.8125 54.6875 
L 36.8125 47.703125 
L 18.3125 47.703125 
L 18.3125 18.015625 
Q 18.3125 11.328125 20.140625 9.421875 
Q 21.96875 7.515625 27.59375 7.515625 
L 36.8125 7.515625 
L 36.8125 0 
L 27.59375 0 
Q 17.1875 0 13.234375 3.875 
Q 9.28125 7.765625 9.28125 18.015625 
L 9.28125 47.703125 
L 2.6875 47.703125 
L 2.6875 54.6875 
L 9.28125 54.6875 
L 9.28125 70.21875 
z
" id="DejaVuSans-116"/>
     <path d="M 44.28125 53.078125 
L 44.28125 44.578125 
Q 40.484375 46.53125 36.375 47.5 
Q 32.28125 48.484375 27.875 48.484375 
Q 21.1875 48.484375 17.84375 46.4375 
Q 14.5 44.390625 14.5 40.28125 
Q 14.5 37.15625 16.890625 35.375 
Q 19.28125 33.59375 26.515625 31.984375 
L 29.59375 31.296875 
Q 39.15625 29.25 43.1875 25.515625 
Q 47.21875 21.78125 47.21875 15.09375 
Q 47.21875 7.46875 41.1875 3.015625 
Q 35.15625 -1.421875 24.609375 -1.421875 
Q 20.21875 -1.421875 15.453125 -0.5625 
Q 10.6875 0.296875 5.421875 2 
L 5.421875 11.28125 
Q 10.40625 8.6875 15.234375 7.390625 
Q 20.0625 6.109375 24.8125 6.109375 
Q 31.15625 6.109375 34.5625 8.28125 
Q 37.984375 10.453125 37.984375 14.40625 
Q 37.984375 18.0625 35.515625 20.015625 
Q 33.0625 21.96875 24.703125 23.78125 
L 21.578125 24.515625 
Q 13.234375 26.265625 9.515625 29.90625 
Q 5.8125 33.546875 5.8125 39.890625 
Q 5.8125 47.609375 11.28125 51.796875 
Q 16.75 56 26.8125 56 
Q 31.78125 56 36.171875 55.265625 
Q 40.578125 54.546875 44.28125 53.078125 
z
" id="DejaVuSans-115"/>
     <path d="M 11.71875 12.40625 
L 22.015625 12.40625 
L 22.015625 0 
L 11.71875 0 
z
M 11.71875 51.703125 
L 22.015625 51.703125 
L 22.015625 39.3125 
L 11.71875 39.3125 
z
" id="DejaVuSans-58"/>
     <path d="M 3.328125 72.90625 
L 13.28125 72.90625 
L 28.609375 11.28125 
L 43.890625 72.90625 
L 54.984375 72.90625 
L 70.3125 11.28125 
L 85.59375 72.90625 
L 95.609375 72.90625 
L 77.296875 0 
L 64.890625 0 
L 49.515625 63.28125 
L 33.984375 0 
L 21.578125 0 
z
" id="DejaVuSans-87"/>
     <path d="M 9.421875 54.6875 
L 18.40625 54.6875 
L 18.40625 0 
L 9.421875 0 
z
M 9.421875 75.984375 
L 18.40625 75.984375 
L 18.40625 64.59375 
L 9.421875 64.59375 
z
" id="DejaVuSans-105"/>
     <path d="M 54.890625 33.015625 
L 54.890625 0 
L 45.90625 0 
L 45.90625 32.71875 
Q 45.90625 40.484375 42.875 44.328125 
Q 39.84375 48.1875 33.796875 48.1875 
Q 26.515625 48.1875 22.3125 43.546875 
Q 18.109375 38.921875 18.109375 30.90625 
L 18.109375 0 
L 9.078125 0 
L 9.078125 54.6875 
L 18.109375 54.6875 
L 18.109375 46.1875 
Q 21.34375 51.125 25.703125 53.5625 
Q 30.078125 56 35.796875 56 
Q 45.21875 56 50.046875 50.171875 
Q 54.890625 44.34375 54.890625 33.015625 
z
" id="DejaVuSans-110"/>
     <path id="DejaVuSans-32"/>
     <path d="M 31 75.875 
Q 24.46875 64.65625 21.28125 53.65625 
Q 18.109375 42.671875 18.109375 31.390625 
Q 18.109375 20.125 21.3125 9.0625 
Q 24.515625 -2 31 -13.1875 
L 23.1875 -13.1875 
Q 15.875 -1.703125 12.234375 9.375 
Q 8.59375 20.453125 8.59375 31.390625 
Q 8.59375 42.28125 12.203125 53.3125 
Q 15.828125 64.359375 23.1875 75.875 
z
" id="DejaVuSans-40"/>
     <path d="M 8.6875 72.90625 
L 18.609375 72.90625 
L 18.609375 28.609375 
Q 18.609375 16.890625 22.84375 11.734375 
Q 27.09375 6.59375 36.625 6.59375 
Q 46.09375 6.59375 50.34375 11.734375 
Q 54.59375 16.890625 54.59375 28.609375 
L 54.59375 72.90625 
L 64.5 72.90625 
L 64.5 27.390625 
Q 64.5 13.140625 57.4375 5.859375 
Q 50.390625 -1.421875 36.625 -1.421875 
Q 22.796875 -1.421875 15.734375 5.859375 
Q 8.6875 13.140625 8.6875 27.390625 
z
" id="DejaVuSans-85"/>
     <path d="M 64.40625 67.28125 
L 64.40625 56.890625 
Q 59.421875 61.53125 53.78125 63.8125 
Q 48.140625 66.109375 41.796875 66.109375 
Q 29.296875 66.109375 22.65625 58.46875 
Q 16.015625 50.828125 16.015625 36.375 
Q 16.015625 21.96875 22.65625 14.328125 
Q 29.296875 6.6875 41.796875 6.6875 
Q 48.140625 6.6875 53.78125 8.984375 
Q 59.421875 11.28125 64.40625 15.921875 
L 64.40625 5.609375 
Q 59.234375 2.09375 53.4375 0.328125 
Q 47.65625 -1.421875 41.21875 -1.421875 
Q 24.65625 -1.421875 15.125 8.703125 
Q 5.609375 18.84375 5.609375 36.375 
Q 5.609375 53.953125 15.125 64.078125 
Q 24.65625 74.21875 41.21875 74.21875 
Q 47.75 74.21875 53.53125 72.484375 
Q 59.328125 70.75 64.40625 67.28125 
z
" id="DejaVuSans-67"/>
     <path d="M 9.8125 72.90625 
L 19.671875 72.90625 
L 19.671875 0 
L 9.8125 0 
z
" id="DejaVuSans-73"/>
     <path d="M 8.015625 75.875 
L 15.828125 75.875 
Q 23.140625 64.359375 26.78125 53.3125 
Q 30.421875 42.28125 30.421875 31.390625 
Q 30.421875 20.453125 26.78125 9.375 
Q 23.140625 -1.703125 15.828125 -13.1875 
L 8.015625 -13.1875 
Q 14.5 -2 17.703125 9.0625 
Q 20.90625 20.125 20.90625 31.390625 
Q 20.90625 42.671875 17.703125 53.65625 
Q 14.5 64.65625 8.015625 75.875 
z
" id="DejaVuSans-41"/>
     <path d="M 11.71875 12.40625 
L 22.015625 12.40625 
L 22.015625 4 
L 14.015625 -11.625 
L 7.71875 -11.625 
L 11.71875 4 
z
" id="DejaVuSans-44"/>
     <path d="M 34.1875 63.1875 
L 20.796875 26.90625 
L 47.609375 26.90625 
z
M 28.609375 72.90625 
L 39.796875 72.90625 
L 67.578125 0 
L 57.328125 0 
L 50.6875 18.703125 
L 17.828125 18.703125 
L 11.1875 0 
L 0.78125 0 
z
" id="DejaVuSans-65"/>
     <path d="M 9.421875 75.984375 
L 18.40625 75.984375 
L 18.40625 0 
L 9.421875 0 
z
" id="DejaVuSans-108"/>
     <path d="M 45.40625 27.984375 
Q 45.40625 37.75 41.375 43.109375 
Q 37.359375 48.484375 30.078125 48.484375 
Q 22.859375 48.484375 18.828125 43.109375 
Q 14.796875 37.75 14.796875 27.984375 
Q 14.796875 18.265625 18.828125 12.890625 
Q 22.859375 7.515625 30.078125 7.515625 
Q 37.359375 7.515625 41.375 12.890625 
Q 45.40625 18.265625 45.40625 27.984375 
z
M 54.390625 6.78125 
Q 54.390625 -7.171875 48.1875 -13.984375 
Q 42 -20.796875 29.203125 -20.796875 
Q 24.46875 -20.796875 20.265625 -20.09375 
Q 16.0625 -19.390625 12.109375 -17.921875 
L 12.109375 -9.1875 
Q 16.0625 -11.328125 19.921875 -12.34375 
Q 23.78125 -13.375 27.78125 -13.375 
Q 36.625 -13.375 41.015625 -8.765625 
Q 45.40625 -4.15625 45.40625 5.171875 
L 45.40625 9.625 
Q 42.625 4.78125 38.28125 2.390625 
Q 33.9375 0 27.875 0 
Q 17.828125 0 11.671875 7.65625 
Q 5.515625 15.328125 5.515625 27.984375 
Q 5.515625 40.671875 11.671875 48.328125 
Q 17.828125 56 27.875 56 
Q 33.9375 56 38.28125 53.609375 
Q 42.625 51.21875 45.40625 46.390625 
L 45.40625 54.6875 
L 54.390625 54.6875 
z
" id="DejaVuSans-103"/>
     <path d="M 30.609375 48.390625 
Q 23.390625 48.390625 19.1875 42.75 
Q 14.984375 37.109375 14.984375 27.296875 
Q 14.984375 17.484375 19.15625 11.84375 
Q 23.34375 6.203125 30.609375 6.203125 
Q 37.796875 6.203125 41.984375 11.859375 
Q 46.1875 17.53125 46.1875 27.296875 
Q 46.1875 37.015625 41.984375 42.703125 
Q 37.796875 48.390625 30.609375 48.390625 
z
M 30.609375 56 
Q 42.328125 56 49.015625 48.375 
Q 55.71875 40.765625 55.71875 27.296875 
Q 55.71875 13.875 49.015625 6.21875 
Q 42.328125 -1.421875 30.609375 -1.421875 
Q 18.84375 -1.421875 12.171875 6.21875 
Q 5.515625 13.875 5.515625 27.296875 
Q 5.515625 40.765625 12.171875 48.375 
Q 18.84375 56 30.609375 56 
z
" id="DejaVuSans-111"/>
     <path d="M 9.8125 72.90625 
L 19.671875 72.90625 
L 19.671875 42.09375 
L 52.390625 72.90625 
L 65.09375 72.90625 
L 28.90625 38.921875 
L 67.671875 0 
L 54.6875 0 
L 19.671875 35.109375 
L 19.671875 0 
L 9.8125 0 
z
" id="DejaVuSans-75"/>
     <path d="M 41.109375 46.296875 
Q 39.59375 47.171875 37.8125 47.578125 
Q 36.03125 48 33.890625 48 
Q 26.265625 48 22.1875 43.046875 
Q 18.109375 38.09375 18.109375 28.8125 
L 18.109375 0 
L 9.078125 0 
L 9.078125 54.6875 
L 18.109375 54.6875 
L 18.109375 46.1875 
Q 20.953125 51.171875 25.484375 53.578125 
Q 30.03125 56 36.53125 56 
Q 37.453125 56 38.578125 55.875 
Q 39.703125 55.765625 41.0625 55.515625 
z
" id="DejaVuSans-114"/>
     <path d="M 19.671875 64.796875 
L 19.671875 37.40625 
L 32.078125 37.40625 
Q 38.96875 37.40625 42.71875 40.96875 
Q 46.484375 44.53125 46.484375 51.125 
Q 46.484375 57.671875 42.71875 61.234375 
Q 38.96875 64.796875 32.078125 64.796875 
z
M 9.8125 72.90625 
L 32.078125 72.90625 
Q 44.34375 72.90625 50.609375 67.359375 
Q 56.890625 61.8125 56.890625 51.125 
Q 56.890625 40.328125 50.609375 34.8125 
Q 44.34375 29.296875 32.078125 29.296875 
L 19.671875 29.296875 
L 19.671875 0 
L 9.8125 0 
z
" id="DejaVuSans-80"/>
     <path d="M 40.578125 39.3125 
Q 47.65625 37.796875 51.625 33 
Q 55.609375 28.21875 55.609375 21.1875 
Q 55.609375 10.40625 48.1875 4.484375 
Q 40.765625 -1.421875 27.09375 -1.421875 
Q 22.515625 -1.421875 17.65625 -0.515625 
Q 12.796875 0.390625 7.625 2.203125 
L 7.625 11.71875 
Q 11.71875 9.328125 16.59375 8.109375 
Q 21.484375 6.890625 26.8125 6.890625 
Q 36.078125 6.890625 40.9375 10.546875 
Q 45.796875 14.203125 45.796875 21.1875 
Q 45.796875 27.640625 41.28125 31.265625 
Q 36.765625 34.90625 28.71875 34.90625 
L 20.21875 34.90625 
L 20.21875 43.015625 
L 29.109375 43.015625 
Q 36.375 43.015625 40.234375 45.921875 
Q 44.09375 48.828125 44.09375 54.296875 
Q 44.09375 59.90625 40.109375 62.90625 
Q 36.140625 65.921875 28.71875 65.921875 
Q 24.65625 65.921875 20.015625 65.03125 
Q 15.375 64.15625 9.8125 62.3125 
L 9.8125 71.09375 
Q 15.4375 72.65625 20.34375 73.4375 
Q 25.25 74.21875 29.59375 74.21875 
Q 40.828125 74.21875 47.359375 69.109375 
Q 53.90625 64.015625 53.90625 55.328125 
Q 53.90625 49.265625 50.4375 45.09375 
Q 46.96875 40.921875 40.578125 39.3125 
z
" id="DejaVuSans-51"/>
    </defs>
    <g transform="translate(119.451406 35.472)scale(0.1 -0.1)">
     <use xlink:href="#DejaVuSans-68"/>
     <use x="77.001953" xlink:href="#DejaVuSans-97"/>
     <use x="138.28125" xlink:href="#DejaVuSans-116"/>
     <use x="177.490234" xlink:href="#DejaVuSans-97"/>
     <use x="238.769531" xlink:href="#DejaVuSans-115"/>
     <use x="290.869141" xlink:href="#DejaVuSans-101"/>
     <use x="352.392578" xlink:href="#DejaVuSans-116"/>
     <use x="391.601562" xlink:href="#DejaVuSans-58"/>
     <use x="425.292969" xlink:href="#DejaVuSans-87"/>
     <use x="524.138672" xlink:href="#DejaVuSans-105"/>
     <use x="551.921875" xlink:href="#DejaVuSans-110"/>
     <use x="615.300781" xlink:href="#DejaVuSans-101"/>
     <use x="676.824219" xlink:href="#DejaVuSans-32"/>
     <use x="708.611328" xlink:href="#DejaVuSans-40"/>
     <use x="747.625" xlink:href="#DejaVuSans-85"/>
     <use x="820.818359" xlink:href="#DejaVuSans-67"/>
     <use x="890.642578" xlink:href="#DejaVuSans-73"/>
     <use x="920.134766" xlink:href="#DejaVuSans-41"/>
     <use x="959.148438" xlink:href="#DejaVuSans-44"/>
     <use x="990.935547" xlink:href="#DejaVuSans-32"/>
     <use x="1022.722656" xlink:href="#DejaVuSans-65"/>
     <use x="1091.130859" xlink:href="#DejaVuSans-108"/>
     <use x="1118.914062" xlink:href="#DejaVuSans-103"/>
     <use x="1182.390625" xlink:href="#DejaVuSans-111"/>
     <use x="1243.572266" xlink:href="#DejaVuSans-58"/>
     <use x="1277.263672" xlink:href="#DejaVuSans-75"/>
     <use x="1342.761719" xlink:href="#DejaVuSans-101"/>
     <use x="1404.285156" xlink:href="#DejaVuSans-114"/>
     <use x="1445.382812" xlink:href="#DejaVuSans-110"/>
     <use x="1508.761719" xlink:href="#DejaVuSans-101"/>
     <use x="1570.285156" xlink:href="#DejaVuSans-108"/>
     <use x="1598.068359" xlink:href="#DejaVuSans-32"/>
     <use x="1629.855469" xlink:href="#DejaVuSans-80"/>
     <use x="1690.158203" xlink:href="#DejaVuSans-67"/>
     <use x="1759.982422" xlink:href="#DejaVuSans-65"/>
     <use x="1828.390625" xlink:href="#DejaVuSans-44"/>
     <use x="1860.177734" xlink:href="#DejaVuSans-67"/>
     <use x="1930.001953" xlink:href="#DejaVuSans-108"/>
     <use x="1957.785156" xlink:href="#DejaVuSans-97"/>
     <use x="2019.064453" xlink:href="#DejaVuSans-115"/>
     <use x="2071.164062" xlink:href="#DejaVuSans-115"/>
     <use x="2123.263672" xlink:href="#DejaVuSans-101"/>
     <use x="2184.787109" xlink:href="#DejaVuSans-115"/>
     <use x="2236.886719" xlink:href="#DejaVuSans-58"/>
     <use x="2270.578125" xlink:href="#DejaVuSans-51"/>
    </g>
   </g>
  </g>
 </g>
 <defs>
  <clipPath id="pe5ac00ab7a">
   <rect height="266.112" width="357.12" x="57.6" y="41.472"/>
  </clipPath>
 </defs>
</svg>
